<?xml version="1.0" encoding="UTF-8" standalone="no"?>
<!DOCTYPE svg PUBLIC "-//W3C//DTD SVG 1.1//EN"
 "http://www.w3.org/Graphics/SVG/1.1/DTD/svg11.dtd">
<!-- Generated by graphviz version 3.0.0 (20220226.1711)
 -->
<!-- Title: controllers_diagram Pages: 1 -->
<svg width="830pt" height="977pt"
 viewBox="0.00 0.00 830.00 977.00" xmlns="http://www.w3.org/2000/svg" xmlns:xlink="http://www.w3.org/1999/xlink">
<g id="graph0" class="graph" transform="scale(1 1) rotate(0) translate(4 973)">
<title>controllers_diagram</title>
<polygon fill="transparent" stroke="transparent" points="-4,4 -4,-973 826,-973 826,4 -4,4"/>
<!-- _diagram_info -->
<g id="node1" class="node">
<title>_diagram_info</title>
<text text-anchor="start" x="368" y="-203.6" font-family="Times,serif" font-size="13.00">Controllers diagram</text>
<text text-anchor="start" x="368" y="-189.6" font-family="Times,serif" font-size="13.00">Date: Apr 17 2022 &#45; 23:41</text>
<text text-anchor="start" x="368" y="-175.6" font-family="Times,serif" font-size="13.00">Migration version: 20220416210748</text>
<text text-anchor="start" x="368" y="-161.6" font-family="Times,serif" font-size="13.00">Generated by RailRoady 1.6.0</text>
<text text-anchor="start" x="368" y="-147.6" font-family="Times,serif" font-size="13.00">http://railroady.prestonlee.com</text>
</g>
<!-- ApplicationController -->
<g id="node2" class="node">
<title>ApplicationController</title>
<path fill="none" stroke="black" d="M532,-780.5C532,-780.5 644,-780.5 644,-780.5 650,-780.5 656,-786.5 656,-792.5 656,-792.5 656,-877.5 656,-877.5 656,-883.5 650,-889.5 644,-889.5 644,-889.5 532,-889.5 532,-889.5 526,-889.5 520,-883.5 520,-877.5 520,-877.5 520,-792.5 520,-792.5 520,-786.5 526,-780.5 532,-780.5"/>
<text text-anchor="middle" x="588" y="-874.3" font-family="Times,serif" font-size="14.00">ApplicationController</text>
<polyline fill="none" stroke="black" points="520,-866.5 656,-866.5 "/>
<polyline fill="none" stroke="black" points="520,-842.5 656,-842.5 "/>
<polyline fill="none" stroke="black" points="520,-818.5 656,-818.5 "/>
<text text-anchor="start" x="528" y="-803.3" font-family="Times,serif" font-size="14.00">_layout</text>
<text text-anchor="start" x="528" y="-788.3" font-family="Times,serif" font-size="14.00">_layout_from_proc</text>
</g>
<!-- ClientsController -->
<g id="node3" class="node">
<title>ClientsController</title>
<path fill="none" stroke="black" d="M692,-60.5C692,-60.5 790,-60.5 790,-60.5 796,-60.5 802,-66.5 802,-72.5 802,-72.5 802,-276.5 802,-276.5 802,-282.5 796,-288.5 790,-288.5 790,-288.5 692,-288.5 692,-288.5 686,-288.5 680,-282.5 680,-276.5 680,-276.5 680,-72.5 680,-72.5 680,-66.5 686,-60.5 692,-60.5"/>
<text text-anchor="middle" x="741" y="-273.3" font-family="Times,serif" font-size="14.00">ClientsController</text>
<polyline fill="none" stroke="black" points="680,-265.5 802,-265.5 "/>
<text text-anchor="start" x="688" y="-250.3" font-family="Times,serif" font-size="14.00">create</text>
<text text-anchor="start" x="688" y="-235.3" font-family="Times,serif" font-size="14.00">destroy</text>
<text text-anchor="start" x="688" y="-220.3" font-family="Times,serif" font-size="14.00">edit</text>
<text text-anchor="start" x="688" y="-205.3" font-family="Times,serif" font-size="14.00">index</text>
<text text-anchor="start" x="688" y="-190.3" font-family="Times,serif" font-size="14.00">new</text>
<text text-anchor="start" x="688" y="-175.3" font-family="Times,serif" font-size="14.00">show</text>
<text text-anchor="start" x="688" y="-160.3" font-family="Times,serif" font-size="14.00">update</text>
<polyline fill="none" stroke="black" points="680,-152.5 802,-152.5 "/>
<polyline fill="none" stroke="black" points="680,-128.5 802,-128.5 "/>
<text text-anchor="start" x="688" y="-113.3" font-family="Times,serif" font-size="14.00">_layout</text>
<text text-anchor="start" x="688" y="-98.3" font-family="Times,serif" font-size="14.00">_layout_from_proc</text>
<text text-anchor="start" x="688" y="-83.3" font-family="Times,serif" font-size="14.00">client_params</text>
<text text-anchor="start" x="688" y="-68.3" font-family="Times,serif" font-size="14.00">set_client</text>
</g>
<!-- ContraceptiveTypesController -->
<g id="node4" class="node">
<title>ContraceptiveTypesController</title>
<path fill="none" stroke="black" d="M272,-260.5C272,-260.5 428,-260.5 428,-260.5 434,-260.5 440,-266.5 440,-272.5 440,-272.5 440,-476.5 440,-476.5 440,-482.5 434,-488.5 428,-488.5 428,-488.5 272,-488.5 272,-488.5 266,-488.5 260,-482.5 260,-476.5 260,-476.5 260,-272.5 260,-272.5 260,-266.5 266,-260.5 272,-260.5"/>
<text text-anchor="middle" x="350" y="-473.3" font-family="Times,serif" font-size="14.00">ContraceptiveTypesController</text>
<polyline fill="none" stroke="black" points="260,-465.5 440,-465.5 "/>
<text text-anchor="start" x="268" y="-450.3" font-family="Times,serif" font-size="14.00">create</text>
<text text-anchor="start" x="268" y="-435.3" font-family="Times,serif" font-size="14.00">destroy</text>
<text text-anchor="start" x="268" y="-420.3" font-family="Times,serif" font-size="14.00">edit</text>
<text text-anchor="start" x="268" y="-405.3" font-family="Times,serif" font-size="14.00">index</text>
<text text-anchor="start" x="268" y="-390.3" font-family="Times,serif" font-size="14.00">new</text>
<text text-anchor="start" x="268" y="-375.3" font-family="Times,serif" font-size="14.00">show</text>
<text text-anchor="start" x="268" y="-360.3" font-family="Times,serif" font-size="14.00">update</text>
<polyline fill="none" stroke="black" points="260,-352.5 440,-352.5 "/>
<polyline fill="none" stroke="black" points="260,-328.5 440,-328.5 "/>
<text text-anchor="start" x="268" y="-313.3" font-family="Times,serif" font-size="14.00">_layout</text>
<text text-anchor="start" x="268" y="-298.3" font-family="Times,serif" font-size="14.00">_layout_from_proc</text>
<text text-anchor="start" x="268" y="-283.3" font-family="Times,serif" font-size="14.00">contraceptive_type_params</text>
<text text-anchor="start" x="268" y="-268.3" font-family="Times,serif" font-size="14.00">set_contraceptive_type</text>
</g>
<!-- ContraceptivesController -->
<g id="node5" class="node">
<title>ContraceptivesController</title>
<path fill="none" stroke="black" d="M512,-520.5C512,-520.5 641,-520.5 641,-520.5 647,-520.5 653,-526.5 653,-532.5 653,-532.5 653,-736.5 653,-736.5 653,-742.5 647,-748.5 641,-748.5 641,-748.5 512,-748.5 512,-748.5 506,-748.5 500,-742.5 500,-736.5 500,-736.5 500,-532.5 500,-532.5 500,-526.5 506,-520.5 512,-520.5"/>
<text text-anchor="middle" x="576.5" y="-733.3" font-family="Times,serif" font-size="14.00">ContraceptivesController</text>
<polyline fill="none" stroke="black" points="500,-725.5 653,-725.5 "/>
<text text-anchor="start" x="508" y="-710.3" font-family="Times,serif" font-size="14.00">create</text>
<text text-anchor="start" x="508" y="-695.3" font-family="Times,serif" font-size="14.00">destroy</text>
<text text-anchor="start" x="508" y="-680.3" font-family="Times,serif" font-size="14.00">edit</text>
<text text-anchor="start" x="508" y="-665.3" font-family="Times,serif" font-size="14.00">index</text>
<text text-anchor="start" x="508" y="-650.3" font-family="Times,serif" font-size="14.00">new</text>
<text text-anchor="start" x="508" y="-635.3" font-family="Times,serif" font-size="14.00">show</text>
<text text-anchor="start" x="508" y="-620.3" font-family="Times,serif" font-size="14.00">update</text>
<polyline fill="none" stroke="black" points="500,-612.5 653,-612.5 "/>
<polyline fill="none" stroke="black" points="500,-588.5 653,-588.5 "/>
<text text-anchor="start" x="508" y="-573.3" font-family="Times,serif" font-size="14.00">_layout</text>
<text text-anchor="start" x="508" y="-558.3" font-family="Times,serif" font-size="14.00">_layout_from_proc</text>
<text text-anchor="start" x="508" y="-543.3" font-family="Times,serif" font-size="14.00">contraceptive_params</text>
<text text-anchor="start" x="508" y="-528.3" font-family="Times,serif" font-size="14.00">set_contraceptive</text>
</g>
<!-- DoctorsController -->
<g id="node6" class="node">
<title>DoctorsController</title>
<path fill="none" stroke="black" d="M712,-320.5C712,-320.5 810,-320.5 810,-320.5 816,-320.5 822,-326.5 822,-332.5 822,-332.5 822,-536.5 822,-536.5 822,-542.5 816,-548.5 810,-548.5 810,-548.5 712,-548.5 712,-548.5 706,-548.5 700,-542.5 700,-536.5 700,-536.5 700,-332.5 700,-332.5 700,-326.5 706,-320.5 712,-320.5"/>
<text text-anchor="middle" x="761" y="-533.3" font-family="Times,serif" font-size="14.00">DoctorsController</text>
<polyline fill="none" stroke="black" points="700,-525.5 822,-525.5 "/>
<text text-anchor="start" x="708" y="-510.3" font-family="Times,serif" font-size="14.00">create</text>
<text text-anchor="start" x="708" y="-495.3" font-family="Times,serif" font-size="14.00">destroy</text>
<text text-anchor="start" x="708" y="-480.3" font-family="Times,serif" font-size="14.00">edit</text>
<text text-anchor="start" x="708" y="-465.3" font-family="Times,serif" font-size="14.00">index</text>
<text text-anchor="start" x="708" y="-450.3" font-family="Times,serif" font-size="14.00">new</text>
<text text-anchor="start" x="708" y="-435.3" font-family="Times,serif" font-size="14.00">show</text>
<text text-anchor="start" x="708" y="-420.3" font-family="Times,serif" font-size="14.00">update</text>
<polyline fill="none" stroke="black" points="700,-412.5 822,-412.5 "/>
<polyline fill="none" stroke="black" points="700,-388.5 822,-388.5 "/>
<text text-anchor="start" x="708" y="-373.3" font-family="Times,serif" font-size="14.00">_layout</text>
<text text-anchor="start" x="708" y="-358.3" font-family="Times,serif" font-size="14.00">_layout_from_proc</text>
<text text-anchor="start" x="708" y="-343.3" font-family="Times,serif" font-size="14.00">doctor_params</text>
<text text-anchor="start" x="708" y="-328.3" font-family="Times,serif" font-size="14.00">set_doctor</text>
</g>
<!-- DrugsController -->
<g id="node7" class="node">
<title>DrugsController</title>
<path fill="none" stroke="black" d="M712,-580.5C712,-580.5 810,-580.5 810,-580.5 816,-580.5 822,-586.5 822,-592.5 822,-592.5 822,-796.5 822,-796.5 822,-802.5 816,-808.5 810,-808.5 810,-808.5 712,-808.5 712,-808.5 706,-808.5 700,-802.5 700,-796.5 700,-796.5 700,-592.5 700,-592.5 700,-586.5 706,-580.5 712,-580.5"/>
<text text-anchor="middle" x="761" y="-793.3" font-family="Times,serif" font-size="14.00">DrugsController</text>
<polyline fill="none" stroke="black" points="700,-785.5 822,-785.5 "/>
<text text-anchor="start" x="708" y="-770.3" font-family="Times,serif" font-size="14.00">create</text>
<text text-anchor="start" x="708" y="-755.3" font-family="Times,serif" font-size="14.00">destroy</text>
<text text-anchor="start" x="708" y="-740.3" font-family="Times,serif" font-size="14.00">edit</text>
<text text-anchor="start" x="708" y="-725.3" font-family="Times,serif" font-size="14.00">index</text>
<text text-anchor="start" x="708" y="-710.3" font-family="Times,serif" font-size="14.00">new</text>
<text text-anchor="start" x="708" y="-695.3" font-family="Times,serif" font-size="14.00">show</text>
<text text-anchor="start" x="708" y="-680.3" font-family="Times,serif" font-size="14.00">update</text>
<polyline fill="none" stroke="black" points="700,-672.5 822,-672.5 "/>
<polyline fill="none" stroke="black" points="700,-648.5 822,-648.5 "/>
<text text-anchor="start" x="708" y="-633.3" font-family="Times,serif" font-size="14.00">_layout</text>
<text text-anchor="start" x="708" y="-618.3" font-family="Times,serif" font-size="14.00">_layout_from_proc</text>
<text text-anchor="start" x="708" y="-603.3" font-family="Times,serif" font-size="14.00">drug_params</text>
<text text-anchor="start" x="708" y="-588.3" font-family="Times,serif" font-size="14.00">set_drug</text>
</g>
<!-- HelloWorldController -->
<g id="node8" class="node">
<title>HelloWorldController</title>
<path fill="none" stroke="black" d="M372,-0.5C372,-0.5 484,-0.5 484,-0.5 490,-0.5 496,-6.5 496,-12.5 496,-12.5 496,-96.5 496,-96.5 496,-102.5 490,-108.5 484,-108.5 484,-108.5 372,-108.5 372,-108.5 366,-108.5 360,-102.5 360,-96.5 360,-96.5 360,-12.5 360,-12.5 360,-6.5 366,-0.5 372,-0.5"/>
<text text-anchor="middle" x="428" y="-93.3" font-family="Times,serif" font-size="14.00">HelloWorldController</text>
<polyline fill="none" stroke="black" points="360,-85.5 496,-85.5 "/>
<text text-anchor="start" x="368" y="-70.3" font-family="Times,serif" font-size="14.00">index</text>
<polyline fill="none" stroke="black" points="360,-62.5 496,-62.5 "/>
<polyline fill="none" stroke="black" points="360,-38.5 496,-38.5 "/>
<text text-anchor="start" x="368" y="-23.3" font-family="Times,serif" font-size="14.00">_layout</text>
<text text-anchor="start" x="368" y="-8.3" font-family="Times,serif" font-size="14.00">_layout_from_proc</text>
</g>
<!-- InvoicesController -->
<g id="node9" class="node">
<title>InvoicesController</title>
<path fill="none" stroke="black" d="M52,-60.5C52,-60.5 150,-60.5 150,-60.5 156,-60.5 162,-66.5 162,-72.5 162,-72.5 162,-276.5 162,-276.5 162,-282.5 156,-288.5 150,-288.5 150,-288.5 52,-288.5 52,-288.5 46,-288.5 40,-282.5 40,-276.5 40,-276.5 40,-72.5 40,-72.5 40,-66.5 46,-60.5 52,-60.5"/>
<text text-anchor="middle" x="101" y="-273.3" font-family="Times,serif" font-size="14.00">InvoicesController</text>
<polyline fill="none" stroke="black" points="40,-265.5 162,-265.5 "/>
<text text-anchor="start" x="48" y="-250.3" font-family="Times,serif" font-size="14.00">create</text>
<text text-anchor="start" x="48" y="-235.3" font-family="Times,serif" font-size="14.00">destroy</text>
<text text-anchor="start" x="48" y="-220.3" font-family="Times,serif" font-size="14.00">edit</text>
<text text-anchor="start" x="48" y="-205.3" font-family="Times,serif" font-size="14.00">index</text>
<text text-anchor="start" x="48" y="-190.3" font-family="Times,serif" font-size="14.00">new</text>
<text text-anchor="start" x="48" y="-175.3" font-family="Times,serif" font-size="14.00">show</text>
<text text-anchor="start" x="48" y="-160.3" font-family="Times,serif" font-size="14.00">update</text>
<polyline fill="none" stroke="black" points="40,-152.5 162,-152.5 "/>
<polyline fill="none" stroke="black" points="40,-128.5 162,-128.5 "/>
<text text-anchor="start" x="48" y="-113.3" font-family="Times,serif" font-size="14.00">_layout</text>
<text text-anchor="start" x="48" y="-98.3" font-family="Times,serif" font-size="14.00">_layout_from_proc</text>
<text text-anchor="start" x="48" y="-83.3" font-family="Times,serif" font-size="14.00">invoice_params</text>
<text text-anchor="start" x="48" y="-68.3" font-family="Times,serif" font-size="14.00">set_invoice</text>
</g>
<!-- MainPageController -->
<g id="node10" class="node">
<title>MainPageController</title>
<path fill="none" stroke="black" d="M12,-600.5C12,-600.5 116,-600.5 116,-600.5 122,-600.5 128,-606.5 128,-612.5 128,-612.5 128,-696.5 128,-696.5 128,-702.5 122,-708.5 116,-708.5 116,-708.5 12,-708.5 12,-708.5 6,-708.5 0,-702.5 0,-696.5 0,-696.5 0,-612.5 0,-612.5 0,-606.5 6,-600.5 12,-600.5"/>
<text text-anchor="middle" x="64" y="-693.3" font-family="Times,serif" font-size="14.00">MainPageController</text>
<polyline fill="none" stroke="black" points="0,-685.5 128,-685.5 "/>
<text text-anchor="start" x="8" y="-670.3" font-family="Times,serif" font-size="14.00">index</text>
<polyline fill="none" stroke="black" points="0,-662.5 128,-662.5 "/>
<polyline fill="none" stroke="black" points="0,-638.5 128,-638.5 "/>
<text text-anchor="start" x="8" y="-623.3" font-family="Times,serif" font-size="14.00">_layout</text>
<text text-anchor="start" x="8" y="-608.3" font-family="Times,serif" font-size="14.00">_layout_from_proc</text>
</g>
<!-- OfficesController -->
<g id="node11" class="node">
<title>OfficesController</title>
<path fill="none" stroke="black" d="M12,-740.5C12,-740.5 110,-740.5 110,-740.5 116,-740.5 122,-746.5 122,-752.5 122,-752.5 122,-956.5 122,-956.5 122,-962.5 116,-968.5 110,-968.5 110,-968.5 12,-968.5 12,-968.5 6,-968.5 0,-962.5 0,-956.5 0,-956.5 0,-752.5 0,-752.5 0,-746.5 6,-740.5 12,-740.5"/>
<text text-anchor="middle" x="61" y="-953.3" font-family="Times,serif" font-size="14.00">OfficesController</text>
<polyline fill="none" stroke="black" points="0,-945.5 122,-945.5 "/>
<text text-anchor="start" x="8" y="-930.3" font-family="Times,serif" font-size="14.00">create</text>
<text text-anchor="start" x="8" y="-915.3" font-family="Times,serif" font-size="14.00">destroy</text>
<text text-anchor="start" x="8" y="-900.3" font-family="Times,serif" font-size="14.00">edit</text>
<text text-anchor="start" x="8" y="-885.3" font-family="Times,serif" font-size="14.00">index</text>
<text text-anchor="start" x="8" y="-870.3" font-family="Times,serif" font-size="14.00">new</text>
<text text-anchor="start" x="8" y="-855.3" font-family="Times,serif" font-size="14.00">show</text>
<text text-anchor="start" x="8" y="-840.3" font-family="Times,serif" font-size="14.00">update</text>
<polyline fill="none" stroke="black" points="0,-832.5 122,-832.5 "/>
<polyline fill="none" stroke="black" points="0,-808.5 122,-808.5 "/>
<text text-anchor="start" x="8" y="-793.3" font-family="Times,serif" font-size="14.00">_layout</text>
<text text-anchor="start" x="8" y="-778.3" font-family="Times,serif" font-size="14.00">_layout_from_proc</text>
<text text-anchor="start" x="8" y="-763.3" font-family="Times,serif" font-size="14.00">office_params</text>
<text text-anchor="start" x="8" y="-748.3" font-family="Times,serif" font-size="14.00">set_office</text>
</g>
<!-- PatientsController -->
<g id="node12" class="node">
<title>PatientsController</title>
<path fill="none" stroke="black" d="M212,-0.5C212,-0.5 310,-0.5 310,-0.5 316,-0.5 322,-6.5 322,-12.5 322,-12.5 322,-216.5 322,-216.5 322,-222.5 316,-228.5 310,-228.5 310,-228.5 212,-228.5 212,-228.5 206,-228.5 200,-222.5 200,-216.5 200,-216.5 200,-12.5 200,-12.5 200,-6.5 206,-0.5 212,-0.5"/>
<text text-anchor="middle" x="261" y="-213.3" font-family="Times,serif" font-size="14.00">PatientsController</text>
<polyline fill="none" stroke="black" points="200,-205.5 322,-205.5 "/>
<text text-anchor="start" x="208" y="-190.3" font-family="Times,serif" font-size="14.00">create</text>
<text text-anchor="start" x="208" y="-175.3" font-family="Times,serif" font-size="14.00">destroy</text>
<text text-anchor="start" x="208" y="-160.3" font-family="Times,serif" font-size="14.00">edit</text>
<text text-anchor="start" x="208" y="-145.3" font-family="Times,serif" font-size="14.00">index</text>
<text text-anchor="start" x="208" y="-130.3" font-family="Times,serif" font-size="14.00">new</text>
<text text-anchor="start" x="208" y="-115.3" font-family="Times,serif" font-size="14.00">show</text>
<text text-anchor="start" x="208" y="-100.3" font-family="Times,serif" font-size="14.00">update</text>
<polyline fill="none" stroke="black" points="200,-92.5 322,-92.5 "/>
<polyline fill="none" stroke="black" points="200,-68.5 322,-68.5 "/>
<text text-anchor="start" x="208" y="-53.3" font-family="Times,serif" font-size="14.00">_layout</text>
<text text-anchor="start" x="208" y="-38.3" font-family="Times,serif" font-size="14.00">_layout_from_proc</text>
<text text-anchor="start" x="208" y="-23.3" font-family="Times,serif" font-size="14.00">patient_params</text>
<text text-anchor="start" x="208" y="-8.3" font-family="Times,serif" font-size="14.00">set_patient</text>
</g>
<!-- ReservationFeesController -->
<g id="node13" class="node">
<title>ReservationFeesController</title>
<path fill="none" stroke="black" d="M492,-260.5C492,-260.5 629,-260.5 629,-260.5 635,-260.5 641,-266.5 641,-272.5 641,-272.5 641,-476.5 641,-476.5 641,-482.5 635,-488.5 629,-488.5 629,-488.5 492,-488.5 492,-488.5 486,-488.5 480,-482.5 480,-476.5 480,-476.5 480,-272.5 480,-272.5 480,-266.5 486,-260.5 492,-260.5"/>
<text text-anchor="middle" x="560.5" y="-473.3" font-family="Times,serif" font-size="14.00">ReservationFeesController</text>
<polyline fill="none" stroke="black" points="480,-465.5 641,-465.5 "/>
<text text-anchor="start" x="488" y="-450.3" font-family="Times,serif" font-size="14.00">create</text>
<text text-anchor="start" x="488" y="-435.3" font-family="Times,serif" font-size="14.00">destroy</text>
<text text-anchor="start" x="488" y="-420.3" font-family="Times,serif" font-size="14.00">edit</text>
<text text-anchor="start" x="488" y="-405.3" font-family="Times,serif" font-size="14.00">index</text>
<text text-anchor="start" x="488" y="-390.3" font-family="Times,serif" font-size="14.00">new</text>
<text text-anchor="start" x="488" y="-375.3" font-family="Times,serif" font-size="14.00">show</text>
<text text-anchor="start" x="488" y="-360.3" font-family="Times,serif" font-size="14.00">update</text>
<polyline fill="none" stroke="black" points="480,-352.5 641,-352.5 "/>
<polyline fill="none" stroke="black" points="480,-328.5 641,-328.5 "/>
<text text-anchor="start" x="488" y="-313.3" font-family="Times,serif" font-size="14.00">_layout</text>
<text text-anchor="start" x="488" y="-298.3" font-family="Times,serif" font-size="14.00">_layout_from_proc</text>
<text text-anchor="start" x="488" y="-283.3" font-family="Times,serif" font-size="14.00">reservation_fee_params</text>
<text text-anchor="start" x="488" y="-268.3" font-family="Times,serif" font-size="14.00">set_reservation_fee</text>
</g>
<!-- ReservationsController -->
<g id="node14" class="node">
<title>ReservationsController</title>
<path fill="none" stroke="black" d="M172,-580.5C172,-580.5 290,-580.5 290,-580.5 296,-580.5 302,-586.5 302,-592.5 302,-592.5 302,-796.5 302,-796.5 302,-802.5 296,-808.5 290,-808.5 290,-808.5 172,-808.5 172,-808.5 166,-808.5 160,-802.5 160,-796.5 160,-796.5 160,-592.5 160,-592.5 160,-586.5 166,-580.5 172,-580.5"/>
<text text-anchor="middle" x="231" y="-793.3" font-family="Times,serif" font-size="14.00">ReservationsController</text>
<polyline fill="none" stroke="black" points="160,-785.5 302,-785.5 "/>
<text text-anchor="start" x="168" y="-770.3" font-family="Times,serif" font-size="14.00">create</text>
<text text-anchor="start" x="168" y="-755.3" font-family="Times,serif" font-size="14.00">destroy</text>
<text text-anchor="start" x="168" y="-740.3" font-family="Times,serif" font-size="14.00">edit</text>
<text text-anchor="start" x="168" y="-725.3" font-family="Times,serif" font-size="14.00">index</text>
<text text-anchor="start" x="168" y="-710.3" font-family="Times,serif" font-size="14.00">new</text>
<text text-anchor="start" x="168" y="-695.3" font-family="Times,serif" font-size="14.00">show</text>
<text text-anchor="start" x="168" y="-680.3" font-family="Times,serif" font-size="14.00">update</text>
<polyline fill="none" stroke="black" points="160,-672.5 302,-672.5 "/>
<polyline fill="none" stroke="black" points="160,-648.5 302,-648.5 "/>
<text text-anchor="start" x="168" y="-633.3" font-family="Times,serif" font-size="14.00">_layout</text>
<text text-anchor="start" x="168" y="-618.3" font-family="Times,serif" font-size="14.00">_layout_from_proc</text>
<text text-anchor="start" x="168" y="-603.3" font-family="Times,serif" font-size="14.00">reservation_params</text>
<text text-anchor="start" x="168" y="-588.3" font-family="Times,serif" font-size="14.00">set_reservation</text>
</g>
<!-- SchedulesController -->
<g id="node15" class="node">
<title>SchedulesController</title>
<path fill="none" stroke="black" d="M352,-520.5C352,-520.5 455,-520.5 455,-520.5 461,-520.5 467,-526.5 467,-532.5 467,-532.5 467,-736.5 467,-736.5 467,-742.5 461,-748.5 455,-748.5 455,-748.5 352,-748.5 352,-748.5 346,-748.5 340,-742.5 340,-736.5 340,-736.5 340,-532.5 340,-532.5 340,-526.5 346,-520.5 352,-520.5"/>
<text text-anchor="middle" x="403.5" y="-733.3" font-family="Times,serif" font-size="14.00">SchedulesController</text>
<polyline fill="none" stroke="black" points="340,-725.5 467,-725.5 "/>
<text text-anchor="start" x="348" y="-710.3" font-family="Times,serif" font-size="14.00">create</text>
<text text-anchor="start" x="348" y="-695.3" font-family="Times,serif" font-size="14.00">destroy</text>
<text text-anchor="start" x="348" y="-680.3" font-family="Times,serif" font-size="14.00">edit</text>
<text text-anchor="start" x="348" y="-665.3" font-family="Times,serif" font-size="14.00">index</text>
<text text-anchor="start" x="348" y="-650.3" font-family="Times,serif" font-size="14.00">new</text>
<text text-anchor="start" x="348" y="-635.3" font-family="Times,serif" font-size="14.00">show</text>
<text text-anchor="start" x="348" y="-620.3" font-family="Times,serif" font-size="14.00">update</text>
<polyline fill="none" stroke="black" points="340,-612.5 467,-612.5 "/>
<polyline fill="none" stroke="black" points="340,-588.5 467,-588.5 "/>
<text text-anchor="start" x="348" y="-573.3" font-family="Times,serif" font-size="14.00">_layout</text>
<text text-anchor="start" x="348" y="-558.3" font-family="Times,serif" font-size="14.00">_layout_from_proc</text>
<text text-anchor="start" x="348" y="-543.3" font-family="Times,serif" font-size="14.00">schedule_params</text>
<text text-anchor="start" x="348" y="-528.3" font-family="Times,serif" font-size="14.00">set_schedule</text>
</g>
<!-- SpecialtiesController -->
<g id="node16" class="node">
<title>SpecialtiesController</title>
<path fill="none" stroke="black" d="M112,-320.5C112,-320.5 219,-320.5 219,-320.5 225,-320.5 231,-326.5 231,-332.5 231,-332.5 231,-536.5 231,-536.5 231,-542.5 225,-548.5 219,-548.5 219,-548.5 112,-548.5 112,-548.5 106,-548.5 100,-542.5 100,-536.5 100,-536.5 100,-332.5 100,-332.5 100,-326.5 106,-320.5 112,-320.5"/>
<text text-anchor="middle" x="165.5" y="-533.3" font-family="Times,serif" font-size="14.00">SpecialtiesController</text>
<polyline fill="none" stroke="black" points="100,-525.5 231,-525.5 "/>
<text text-anchor="start" x="108" y="-510.3" font-family="Times,serif" font-size="14.00">create</text>
<text text-anchor="start" x="108" y="-495.3" font-family="Times,serif" font-size="14.00">destroy</text>
<text text-anchor="start" x="108" y="-480.3" font-family="Times,serif" font-size="14.00">edit</text>
<text text-anchor="start" x="108" y="-465.3" font-family="Times,serif" font-size="14.00">index</text>
<text text-anchor="start" x="108" y="-450.3" font-family="Times,serif" font-size="14.00">new</text>
<text text-anchor="start" x="108" y="-435.3" font-family="Times,serif" font-size="14.00">show</text>
<text text-anchor="start" x="108" y="-420.3" font-family="Times,serif" font-size="14.00">update</text>
<polyline fill="none" stroke="black" points="100,-412.5 231,-412.5 "/>
<polyline fill="none" stroke="black" points="100,-388.5 231,-388.5 "/>
<text text-anchor="start" x="108" y="-373.3" font-family="Times,serif" font-size="14.00">_layout</text>
<text text-anchor="start" x="108" y="-358.3" font-family="Times,serif" font-size="14.00">_layout_from_proc</text>
<text text-anchor="start" x="108" y="-343.3" font-family="Times,serif" font-size="14.00">set_specialty</text>
<text text-anchor="start" x="108" y="-328.3" font-family="Times,serif" font-size="14.00">specialty_params</text>
</g>
</g>
</svg>
