<?xml version="1.0" encoding="UTF-8" standalone="no"?>
<!DOCTYPE svg PUBLIC "-//W3C//DTD SVG 1.1//EN"
 "http://www.w3.org/Graphics/SVG/1.1/DTD/svg11.dtd">
<!-- Generated by graphviz version 3.0.0 (20220226.1711)
 -->
<!-- Title: models_diagram Pages: 1 -->
<svg width="1257pt" height="1295pt"
 viewBox="0.00 0.00 1257.00 1295.00" xmlns="http://www.w3.org/2000/svg" xmlns:xlink="http://www.w3.org/1999/xlink">
<g id="graph0" class="graph" transform="scale(1 1) rotate(0) translate(4 1291)">
<title>models_diagram</title>
<polygon fill="transparent" stroke="transparent" points="-4,4 -4,-1291 1253,-1291 1253,4 -4,4"/>
<!-- _diagram_info -->
<g id="node1" class="node">
<title>_diagram_info</title>
<text text-anchor="start" x="315" y="-1250.6" font-family="Times,serif" font-size="13.00">Models diagram</text>
<text text-anchor="start" x="315" y="-1236.6" font-family="Times,serif" font-size="13.00">Date: Apr 17 2022 &#45; 23:41</text>
<text text-anchor="start" x="315" y="-1222.6" font-family="Times,serif" font-size="13.00">Migration version: 20220416210748</text>
<text text-anchor="start" x="315" y="-1208.6" font-family="Times,serif" font-size="13.00">Generated by RailRoady 1.6.0</text>
<text text-anchor="start" x="315" y="-1194.6" font-family="Times,serif" font-size="13.00">http://railroady.prestonlee.com</text>
</g>
<!-- ApplicationRecord -->
<g id="node2" class="node">
<title>ApplicationRecord</title>
<ellipse fill="none" stroke="black" cx="616" cy="-1226" rx="77.19" ry="18"/>
<text text-anchor="middle" x="616" y="-1222.3" font-family="Times,serif" font-size="14.00">ApplicationRecord</text>
</g>
<!-- Client -->
<g id="node3" class="node">
<title>Client</title>
<path fill="none" stroke="black" d="M426,-692C426,-692 662,-692 662,-692 668,-692 674,-698 674,-704 674,-704 674,-801 674,-801 674,-807 668,-813 662,-813 662,-813 426,-813 426,-813 420,-813 414,-807 414,-801 414,-801 414,-704 414,-704 414,-698 420,-692 426,-692"/>
<text text-anchor="middle" x="544" y="-797.8" font-family="Times,serif" font-size="14.00">Client</text>
<polyline fill="none" stroke="black" points="414,-790 674,-790 "/>
<text text-anchor="start" x="422" y="-774.8" font-family="Times,serif" font-size="14.00">id :bigint</text>
<text text-anchor="start" x="422" y="-759.8" font-family="Times,serif" font-size="14.00">name :character varying(100)</text>
<text text-anchor="start" x="422" y="-744.8" font-family="Times,serif" font-size="14.00">last_name :character varying(100)</text>
<text text-anchor="start" x="422" y="-729.8" font-family="Times,serif" font-size="14.00">nit :character varying(50)</text>
<text text-anchor="start" x="422" y="-714.8" font-family="Times,serif" font-size="14.00">created_at :timestamp(6) without time zone</text>
<text text-anchor="start" x="422" y="-699.8" font-family="Times,serif" font-size="14.00">updated_at :timestamp(6) without time zone</text>
</g>
<!-- Contraceptive -->
<g id="node4" class="node">
<title>Contraceptive</title>
<path fill="none" stroke="black" d="M723,-1165.5C723,-1165.5 959,-1165.5 959,-1165.5 965,-1165.5 971,-1171.5 971,-1177.5 971,-1177.5 971,-1274.5 971,-1274.5 971,-1280.5 965,-1286.5 959,-1286.5 959,-1286.5 723,-1286.5 723,-1286.5 717,-1286.5 711,-1280.5 711,-1274.5 711,-1274.5 711,-1177.5 711,-1177.5 711,-1171.5 717,-1165.5 723,-1165.5"/>
<text text-anchor="middle" x="841" y="-1271.3" font-family="Times,serif" font-size="14.00">Contraceptive</text>
<polyline fill="none" stroke="black" points="711,-1263.5 971,-1263.5 "/>
<text text-anchor="start" x="719" y="-1248.3" font-family="Times,serif" font-size="14.00">id :bigint</text>
<text text-anchor="start" x="719" y="-1233.3" font-family="Times,serif" font-size="14.00">observations :text</text>
<text text-anchor="start" x="719" y="-1218.3" font-family="Times,serif" font-size="14.00">contraceptive_type_id :bigint</text>
<text text-anchor="start" x="719" y="-1203.3" font-family="Times,serif" font-size="14.00">patient_id :bigint</text>
<text text-anchor="start" x="719" y="-1188.3" font-family="Times,serif" font-size="14.00">created_at :timestamp(6) without time zone</text>
<text text-anchor="start" x="719" y="-1173.3" font-family="Times,serif" font-size="14.00">updated_at :timestamp(6) without time zone</text>
</g>
<!-- ContraceptiveType -->
<g id="node5" class="node">
<title>ContraceptiveType</title>
<path fill="none" stroke="black" d="M802,-985C802,-985 1038,-985 1038,-985 1044,-985 1050,-991 1050,-997 1050,-997 1050,-1079 1050,-1079 1050,-1085 1044,-1091 1038,-1091 1038,-1091 802,-1091 802,-1091 796,-1091 790,-1085 790,-1079 790,-1079 790,-997 790,-997 790,-991 796,-985 802,-985"/>
<text text-anchor="middle" x="920" y="-1075.8" font-family="Times,serif" font-size="14.00">ContraceptiveType</text>
<polyline fill="none" stroke="black" points="790,-1068 1050,-1068 "/>
<text text-anchor="start" x="798" y="-1052.8" font-family="Times,serif" font-size="14.00">id :bigint</text>
<text text-anchor="start" x="798" y="-1037.8" font-family="Times,serif" font-size="14.00">name :character varying(100)</text>
<text text-anchor="start" x="798" y="-1022.8" font-family="Times,serif" font-size="14.00">description :text</text>
<text text-anchor="start" x="798" y="-1007.8" font-family="Times,serif" font-size="14.00">created_at :timestamp(6) without time zone</text>
<text text-anchor="start" x="798" y="-992.8" font-family="Times,serif" font-size="14.00">updated_at :timestamp(6) without time zone</text>
</g>
<!-- Contraceptive&#45;&gt;ContraceptiveType -->
<g id="edge1" class="edge">
<title>Contraceptive&#45;&gt;ContraceptiveType</title>
<path fill="none" stroke="#0b18c6" d="M870.31,-1155.98C878.01,-1137.86 886.26,-1118.43 893.79,-1100.72"/>
<polygon fill="#0b18c6" stroke="#0b18c6" points="870.23,-1156.18 862.18,-1163.62 868.28,-1160.78 866.32,-1165.38 866.32,-1165.38 866.32,-1165.38 868.28,-1160.78 870.46,-1167.14 870.23,-1156.18 870.23,-1156.18"/>
<polygon fill="#0b18c6" stroke="#0b18c6" points="893.97,-1100.28 902.02,-1092.83 895.93,-1095.68 897.88,-1091.08 897.88,-1091.08 897.88,-1091.08 895.93,-1095.68 893.74,-1089.32 893.97,-1100.28 893.97,-1100.28"/>
</g>
<!-- Patient -->
<g id="node11" class="node">
<title>Patient</title>
<path fill="none" stroke="black" d="M704,-594.5C704,-594.5 940,-594.5 940,-594.5 946,-594.5 952,-600.5 952,-606.5 952,-606.5 952,-898.5 952,-898.5 952,-904.5 946,-910.5 940,-910.5 940,-910.5 704,-910.5 704,-910.5 698,-910.5 692,-904.5 692,-898.5 692,-898.5 692,-606.5 692,-606.5 692,-600.5 698,-594.5 704,-594.5"/>
<text text-anchor="middle" x="822" y="-895.3" font-family="Times,serif" font-size="14.00">Patient</text>
<polyline fill="none" stroke="black" points="692,-887.5 952,-887.5 "/>
<text text-anchor="start" x="700" y="-872.3" font-family="Times,serif" font-size="14.00">sex :sexes</text>
<text text-anchor="start" x="700" y="-857.3" font-family="Times,serif" font-size="14.00">identification :character varying(50)</text>
<text text-anchor="start" x="700" y="-842.3" font-family="Times,serif" font-size="14.00">first_name :character varying(200)</text>
<text text-anchor="start" x="700" y="-827.3" font-family="Times,serif" font-size="14.00">last_name :character varying(20)</text>
<text text-anchor="start" x="700" y="-812.3" font-family="Times,serif" font-size="14.00">birth_date :date</text>
<text text-anchor="start" x="700" y="-797.3" font-family="Times,serif" font-size="14.00">email :character varying(200)</text>
<text text-anchor="start" x="700" y="-782.3" font-family="Times,serif" font-size="14.00">phone :character varying(50)</text>
<text text-anchor="start" x="700" y="-767.3" font-family="Times,serif" font-size="14.00">address :text</text>
<text text-anchor="start" x="700" y="-752.3" font-family="Times,serif" font-size="14.00">weight :integer</text>
<text text-anchor="start" x="700" y="-737.3" font-family="Times,serif" font-size="14.00">height :integer</text>
<text text-anchor="start" x="700" y="-722.3" font-family="Times,serif" font-size="14.00">is_pregnant :boolean</text>
<text text-anchor="start" x="700" y="-707.3" font-family="Times,serif" font-size="14.00">menstruation_date :date</text>
<text text-anchor="start" x="700" y="-692.3" font-family="Times,serif" font-size="14.00">has_menopause :boolean</text>
<text text-anchor="start" x="700" y="-677.3" font-family="Times,serif" font-size="14.00">has_reservation :boolean</text>
<text text-anchor="start" x="700" y="-662.3" font-family="Times,serif" font-size="14.00">last_medical_appointment :date</text>
<text text-anchor="start" x="700" y="-647.3" font-family="Times,serif" font-size="14.00">created_at :timestamp(6) without time zone</text>
<text text-anchor="start" x="700" y="-632.3" font-family="Times,serif" font-size="14.00">updated_at :timestamp(6) without time zone</text>
<text text-anchor="start" x="700" y="-617.3" font-family="Times,serif" font-size="14.00">blood_type :blood_types</text>
<text text-anchor="start" x="700" y="-602.3" font-family="Times,serif" font-size="14.00">id :bigint</text>
</g>
<!-- Contraceptive&#45;&gt;Patient -->
<g id="edge2" class="edge">
<title>Contraceptive&#45;&gt;Patient</title>
<path fill="none" stroke="#9845d8" d="M792.1,-1156.63C787.57,-1147.68 783.68,-1138.35 781,-1129 761.87,-1062.3 765.56,-986.58 776.47,-920.7"/>
<polygon fill="#9845d8" stroke="#9845d8" points="792.1,-1156.64 792.85,-1167.58 794.46,-1161.05 796.82,-1165.46 796.82,-1165.46 796.82,-1165.46 794.46,-1161.05 800.79,-1163.34 792.1,-1156.64 792.1,-1156.64"/>
<polygon fill="#9845d8" stroke="#9845d8" points="776.51,-920.48 782.64,-911.39 777.36,-915.56 778.21,-910.63 778.21,-910.63 778.21,-910.63 777.36,-915.56 773.77,-909.87 776.51,-920.48 776.51,-920.48"/>
</g>
<!-- ContraceptiveType&#45;&gt;Patient -->
<g id="edge3" class="edge">
<title>ContraceptiveType&#45;&gt;Patient</title>
<path fill="none" stroke="#01d35c" d="M898.61,-975.13C892.87,-958.52 886.38,-939.73 879.66,-920.29"/>
<polygon fill="#01d35c" stroke="#01d35c" points="898.64,-975.22 897.66,-986.14 900.28,-979.95 901.91,-984.67 901.91,-984.67 901.91,-984.67 900.28,-979.95 906.16,-983.2 898.64,-975.22 898.64,-975.22"/>
<polygon fill="#01d35c" stroke="#01d35c" points="879.61,-920.15 880.59,-909.23 877.97,-915.43 876.34,-910.7 876.34,-910.7 876.34,-910.7 877.97,-915.43 872.09,-912.17 879.61,-920.15 879.61,-920.15"/>
</g>
<!-- Doctor -->
<g id="node6" class="node">
<title>Doctor</title>
<path fill="none" stroke="black" d="M170,-361.5C170,-361.5 406,-361.5 406,-361.5 412,-361.5 418,-367.5 418,-373.5 418,-373.5 418,-545.5 418,-545.5 418,-551.5 412,-557.5 406,-557.5 406,-557.5 170,-557.5 170,-557.5 164,-557.5 158,-551.5 158,-545.5 158,-545.5 158,-373.5 158,-373.5 158,-367.5 164,-361.5 170,-361.5"/>
<text text-anchor="middle" x="288" y="-542.3" font-family="Times,serif" font-size="14.00">Doctor</text>
<polyline fill="none" stroke="black" points="158,-534.5 418,-534.5 "/>
<text text-anchor="start" x="166" y="-519.3" font-family="Times,serif" font-size="14.00">updated_at :timestamp(6) without time zone</text>
<text text-anchor="start" x="166" y="-504.3" font-family="Times,serif" font-size="14.00">identification :character varying(50)</text>
<text text-anchor="start" x="166" y="-489.3" font-family="Times,serif" font-size="14.00">first_name :character varying(200)</text>
<text text-anchor="start" x="166" y="-474.3" font-family="Times,serif" font-size="14.00">last_name :character varying(20)</text>
<text text-anchor="start" x="166" y="-459.3" font-family="Times,serif" font-size="14.00">birth_date :date</text>
<text text-anchor="start" x="166" y="-444.3" font-family="Times,serif" font-size="14.00">sex :character varying(10)</text>
<text text-anchor="start" x="166" y="-429.3" font-family="Times,serif" font-size="14.00">email :character varying(200)</text>
<text text-anchor="start" x="166" y="-414.3" font-family="Times,serif" font-size="14.00">phone :character varying(50)</text>
<text text-anchor="start" x="166" y="-399.3" font-family="Times,serif" font-size="14.00">address :text</text>
<text text-anchor="start" x="166" y="-384.3" font-family="Times,serif" font-size="14.00">created_at :timestamp(6) without time zone</text>
<text text-anchor="start" x="166" y="-369.3" font-family="Times,serif" font-size="14.00">id :bigint</text>
</g>
<!-- DoctorSpecialty -->
<g id="node7" class="node">
<title>DoctorSpecialty</title>
<path fill="none" stroke="black" d="M12,-181C12,-181 248,-181 248,-181 254,-181 260,-187 260,-193 260,-193 260,-275 260,-275 260,-281 254,-287 248,-287 248,-287 12,-287 12,-287 6,-287 0,-281 0,-275 0,-275 0,-193 0,-193 0,-187 6,-181 12,-181"/>
<text text-anchor="middle" x="130" y="-271.8" font-family="Times,serif" font-size="14.00">DoctorSpecialty</text>
<polyline fill="none" stroke="black" points="0,-264 260,-264 "/>
<text text-anchor="start" x="8" y="-248.8" font-family="Times,serif" font-size="14.00">id :bigint</text>
<text text-anchor="start" x="8" y="-233.8" font-family="Times,serif" font-size="14.00">doctor_id :bigint</text>
<text text-anchor="start" x="8" y="-218.8" font-family="Times,serif" font-size="14.00">specialty_id :bigint</text>
<text text-anchor="start" x="8" y="-203.8" font-family="Times,serif" font-size="14.00">created_at :timestamp(6) without time zone</text>
<text text-anchor="start" x="8" y="-188.8" font-family="Times,serif" font-size="14.00">updated_at :timestamp(6) without time zone</text>
</g>
<!-- Doctor&#45;&gt;DoctorSpecialty -->
<g id="edge4" class="edge">
<title>Doctor&#45;&gt;DoctorSpecialty</title>
<path fill="none" stroke="#c3952a" d="M213.44,-353.03C199.52,-333.34 185.41,-313.38 172.86,-295.63"/>
<polygon fill="#c3952a" stroke="#c3952a" points="213.62,-353.28 215.71,-364.04 216.5,-357.36 219.39,-361.44 219.39,-361.44 219.39,-361.44 216.5,-357.36 223.06,-358.85 213.62,-353.28 213.62,-353.28"/>
<polygon fill="#c3952a" stroke="#c3952a" points="172.6,-295.26 170.5,-284.5 169.72,-291.18 166.83,-287.1 166.83,-287.1 166.83,-287.1 169.72,-291.18 163.16,-289.7 172.6,-295.26 172.6,-295.26"/>
</g>
<!-- Schedule -->
<g id="node14" class="node">
<title>Schedule</title>
<path fill="none" stroke="black" d="M644,-143.5C644,-143.5 880,-143.5 880,-143.5 886,-143.5 892,-149.5 892,-155.5 892,-155.5 892,-312.5 892,-312.5 892,-318.5 886,-324.5 880,-324.5 880,-324.5 644,-324.5 644,-324.5 638,-324.5 632,-318.5 632,-312.5 632,-312.5 632,-155.5 632,-155.5 632,-149.5 638,-143.5 644,-143.5"/>
<text text-anchor="middle" x="762" y="-309.3" font-family="Times,serif" font-size="14.00">Schedule</text>
<polyline fill="none" stroke="black" points="632,-301.5 892,-301.5 "/>
<text text-anchor="start" x="640" y="-286.3" font-family="Times,serif" font-size="14.00">updated_at :timestamp(6) without time zone</text>
<text text-anchor="start" x="640" y="-271.3" font-family="Times,serif" font-size="14.00">date :date</text>
<text text-anchor="start" x="640" y="-256.3" font-family="Times,serif" font-size="14.00">start_time :time without time zone</text>
<text text-anchor="start" x="640" y="-241.3" font-family="Times,serif" font-size="14.00">end_time :time without time zone</text>
<text text-anchor="start" x="640" y="-226.3" font-family="Times,serif" font-size="14.00">is_busy :boolean</text>
<text text-anchor="start" x="640" y="-211.3" font-family="Times,serif" font-size="14.00">doctor_id :bigint</text>
<text text-anchor="start" x="640" y="-196.3" font-family="Times,serif" font-size="14.00">specialty_id :bigint</text>
<text text-anchor="start" x="640" y="-181.3" font-family="Times,serif" font-size="14.00">office_id :bigint</text>
<text text-anchor="start" x="640" y="-166.3" font-family="Times,serif" font-size="14.00">created_at :timestamp(6) without time zone</text>
<text text-anchor="start" x="640" y="-151.3" font-family="Times,serif" font-size="14.00">id :bigint</text>
</g>
<!-- Doctor&#45;&gt;Schedule -->
<g id="edge5" class="edge">
<title>Doctor&#45;&gt;Schedule</title>
<path fill="none" stroke="#68d313" d="M427.5,-378.14C440.02,-372 452.64,-366.19 465,-361 516.34,-339.45 533.31,-345.7 585,-325 597.36,-320.05 610.02,-314.54 622.61,-308.76"/>
<polygon fill="#68d313" stroke="#68d313" points="427.36,-378.21 416.4,-378.63 422.88,-380.44 418.4,-382.66 418.4,-382.66 418.4,-382.66 422.88,-380.44 420.41,-386.69 427.36,-378.21 427.36,-378.21"/>
<polygon fill="#68d313" stroke="#68d313" points="622.69,-308.73 633.65,-308.59 627.22,-306.62 631.76,-304.51 631.76,-304.51 631.76,-304.51 627.22,-306.62 629.86,-300.43 622.69,-308.73 622.69,-308.73"/>
</g>
<!-- Specialty -->
<g id="node15" class="node">
<title>Specialty</title>
<path fill="none" stroke="black" d="M486,-0.5C486,-0.5 722,-0.5 722,-0.5 728,-0.5 734,-6.5 734,-12.5 734,-12.5 734,-94.5 734,-94.5 734,-100.5 728,-106.5 722,-106.5 722,-106.5 486,-106.5 486,-106.5 480,-106.5 474,-100.5 474,-94.5 474,-94.5 474,-12.5 474,-12.5 474,-6.5 480,-0.5 486,-0.5"/>
<text text-anchor="middle" x="604" y="-91.3" font-family="Times,serif" font-size="14.00">Specialty</text>
<polyline fill="none" stroke="black" points="474,-83.5 734,-83.5 "/>
<text text-anchor="start" x="482" y="-68.3" font-family="Times,serif" font-size="14.00">id :bigint</text>
<text text-anchor="start" x="482" y="-53.3" font-family="Times,serif" font-size="14.00">name :character varying(200)</text>
<text text-anchor="start" x="482" y="-38.3" font-family="Times,serif" font-size="14.00">created_at :timestamp(6) without time zone</text>
<text text-anchor="start" x="482" y="-23.3" font-family="Times,serif" font-size="14.00">updated_at :timestamp(6) without time zone</text>
<text text-anchor="start" x="482" y="-8.3" font-family="Times,serif" font-size="14.00">description :text</text>
</g>
<!-- Doctor&#45;&gt;Specialty -->
<g id="edge6" class="edge">
<title>Doctor&#45;&gt;Specialty</title>
<path fill="none" stroke="#619089" d="M281.71,-350.72C279.44,-272.19 282.15,-174.32 307,-143 327.64,-116.99 397.42,-95.49 464.15,-80.19"/>
<polygon fill="#619089" stroke="#619089" points="281.72,-351.17 277.54,-361.31 281.88,-356.17 282.04,-361.17 282.04,-361.17 282.04,-361.17 281.88,-356.17 286.54,-361.02 281.72,-351.17 281.72,-351.17"/>
<polygon fill="#619089" stroke="#619089" points="464.22,-80.18 474.96,-82.37 469.09,-79.08 473.97,-77.98 473.97,-77.98 473.97,-77.98 469.09,-79.08 472.98,-73.59 464.22,-80.18 464.22,-80.18"/>
</g>
<!-- DoctorSpecialty&#45;&gt;Specialty -->
<g id="edge7" class="edge">
<title>DoctorSpecialty&#45;&gt;Specialty</title>
<path fill="none" stroke="#02b5b1" d="M212.49,-175.65C232.05,-163.7 253.28,-152.01 274,-143 334.15,-116.83 403.92,-96.76 463.77,-82.39"/>
<polygon fill="#02b5b1" stroke="#02b5b1" points="212.41,-175.69 201.54,-177.14 208.16,-178.33 203.91,-180.96 203.91,-180.96 203.91,-180.96 208.16,-178.33 206.29,-184.79 212.41,-175.69 212.41,-175.69"/>
<polygon fill="#02b5b1" stroke="#02b5b1" points="463.94,-82.35 474.71,-84.43 468.81,-81.2 473.67,-80.05 473.67,-80.05 473.67,-80.05 468.81,-81.2 472.63,-75.67 463.94,-82.35 463.94,-82.35"/>
</g>
<!-- Drug -->
<g id="node8" class="node">
<title>Drug</title>
<path fill="none" stroke="black" d="M1001,-1173C1001,-1173 1237,-1173 1237,-1173 1243,-1173 1249,-1179 1249,-1185 1249,-1185 1249,-1267 1249,-1267 1249,-1273 1243,-1279 1237,-1279 1237,-1279 1001,-1279 1001,-1279 995,-1279 989,-1273 989,-1267 989,-1267 989,-1185 989,-1185 989,-1179 995,-1173 1001,-1173"/>
<text text-anchor="middle" x="1119" y="-1263.8" font-family="Times,serif" font-size="14.00">Drug</text>
<polyline fill="none" stroke="black" points="989,-1256 1249,-1256 "/>
<text text-anchor="start" x="997" y="-1240.8" font-family="Times,serif" font-size="14.00">id :bigint</text>
<text text-anchor="start" x="997" y="-1225.8" font-family="Times,serif" font-size="14.00">name :character varying(200)</text>
<text text-anchor="start" x="997" y="-1210.8" font-family="Times,serif" font-size="14.00">description :text</text>
<text text-anchor="start" x="997" y="-1195.8" font-family="Times,serif" font-size="14.00">created_at :timestamp(6) without time zone</text>
<text text-anchor="start" x="997" y="-1180.8" font-family="Times,serif" font-size="14.00">updated_at :timestamp(6) without time zone</text>
</g>
<!-- Invoice -->
<g id="node9" class="node">
<title>Invoice</title>
<path fill="none" stroke="black" d="M426,-947.5C426,-947.5 662,-947.5 662,-947.5 668,-947.5 674,-953.5 674,-959.5 674,-959.5 674,-1116.5 674,-1116.5 674,-1122.5 668,-1128.5 662,-1128.5 662,-1128.5 426,-1128.5 426,-1128.5 420,-1128.5 414,-1122.5 414,-1116.5 414,-1116.5 414,-959.5 414,-959.5 414,-953.5 420,-947.5 426,-947.5"/>
<text text-anchor="middle" x="544" y="-1113.3" font-family="Times,serif" font-size="14.00">Invoice</text>
<polyline fill="none" stroke="black" points="414,-1105.5 674,-1105.5 "/>
<text text-anchor="start" x="422" y="-1090.3" font-family="Times,serif" font-size="14.00">updated_at :timestamp(6) without time zone</text>
<text text-anchor="start" x="422" y="-1075.3" font-family="Times,serif" font-size="14.00">number :character varying(50)</text>
<text text-anchor="start" x="422" y="-1060.3" font-family="Times,serif" font-size="14.00">creation_date :date</text>
<text text-anchor="start" x="422" y="-1045.3" font-family="Times,serif" font-size="14.00">due_date :date</text>
<text text-anchor="start" x="422" y="-1030.3" font-family="Times,serif" font-size="14.00">total_cost :double precision</text>
<text text-anchor="start" x="422" y="-1015.3" font-family="Times,serif" font-size="14.00">notes :text</text>
<text text-anchor="start" x="422" y="-1000.3" font-family="Times,serif" font-size="14.00">client_id :bigint</text>
<text text-anchor="start" x="422" y="-985.3" font-family="Times,serif" font-size="14.00">reservation_id :bigint</text>
<text text-anchor="start" x="422" y="-970.3" font-family="Times,serif" font-size="14.00">created_at :timestamp(6) without time zone</text>
<text text-anchor="start" x="422" y="-955.3" font-family="Times,serif" font-size="14.00">id :bigint</text>
</g>
<!-- Invoice&#45;&gt;Client -->
<g id="edge8" class="edge">
<title>Invoice&#45;&gt;Client</title>
<path fill="none" stroke="#db90ee" d="M544,-937.16C544,-899.61 544,-857.75 544,-823.48"/>
<polygon fill="#db90ee" stroke="#db90ee" points="544,-937.3 539.5,-947.3 544,-942.3 544,-947.3 544,-947.3 544,-947.3 544,-942.3 548.5,-947.3 544,-937.3 544,-937.3"/>
<polygon fill="#db90ee" stroke="#db90ee" points="544,-823.1 548.5,-813.1 544,-818.1 544,-813.1 544,-813.1 544,-813.1 544,-818.1 539.5,-813.1 544,-823.1 544,-823.1"/>
</g>
<!-- Invoice&#45;&gt;Patient -->
<g id="edge10" class="edge">
<title>Invoice&#45;&gt;Patient</title>
<path fill="none" stroke="#e659ad" d="M652.98,-940.36C663.27,-930.6 673.43,-920.7 683,-911 683.55,-910.44 684.11,-909.88 684.66,-909.32"/>
<polygon fill="#e659ad" stroke="#e659ad" points="652.74,-940.59 642.37,-944.18 649.1,-944.02 645.46,-947.45 645.46,-947.45 645.46,-947.45 649.1,-944.02 648.55,-950.72 652.74,-940.59 652.74,-940.59"/>
<polygon fill="#e659ad" stroke="#e659ad" points="684.9,-909.07 695.1,-905.05 688.39,-905.49 691.88,-901.91 691.88,-901.91 691.88,-901.91 688.39,-905.49 688.65,-898.77 684.9,-909.07 684.9,-909.07"/>
</g>
<!-- Reservation -->
<g id="node12" class="node">
<title>Reservation</title>
<path fill="none" stroke="black" d="M486,-376.5C486,-376.5 722,-376.5 722,-376.5 728,-376.5 734,-382.5 734,-388.5 734,-388.5 734,-530.5 734,-530.5 734,-536.5 728,-542.5 722,-542.5 722,-542.5 486,-542.5 486,-542.5 480,-542.5 474,-536.5 474,-530.5 474,-530.5 474,-388.5 474,-388.5 474,-382.5 480,-376.5 486,-376.5"/>
<text text-anchor="middle" x="604" y="-527.3" font-family="Times,serif" font-size="14.00">Reservation</text>
<polyline fill="none" stroke="black" points="474,-519.5 734,-519.5 "/>
<text text-anchor="start" x="482" y="-504.3" font-family="Times,serif" font-size="14.00">specialty_id :bigint</text>
<text text-anchor="start" x="482" y="-489.3" font-family="Times,serif" font-size="14.00">date_made :date</text>
<text text-anchor="start" x="482" y="-474.3" font-family="Times,serif" font-size="14.00">patient_id :bigint</text>
<text text-anchor="start" x="482" y="-459.3" font-family="Times,serif" font-size="14.00">schedule_id :bigint</text>
<text text-anchor="start" x="482" y="-444.3" font-family="Times,serif" font-size="14.00">reservation_fee_id :bigint</text>
<text text-anchor="start" x="482" y="-429.3" font-family="Times,serif" font-size="14.00">created_at :timestamp(6) without time zone</text>
<text text-anchor="start" x="482" y="-414.3" font-family="Times,serif" font-size="14.00">updated_at :timestamp(6) without time zone</text>
<text text-anchor="start" x="482" y="-399.3" font-family="Times,serif" font-size="14.00">status :reservation_statuses</text>
<text text-anchor="start" x="482" y="-384.3" font-family="Times,serif" font-size="14.00">id :bigint</text>
</g>
<!-- Invoice&#45;&gt;Reservation -->
<g id="edge9" class="edge">
<title>Invoice&#45;&gt;Reservation</title>
<path fill="none" stroke="#1f93c5" d="M421.42,-939.36C415,-930.39 409.4,-920.92 405,-911 347.91,-782.2 338.7,-718.31 405,-594 419.16,-567.45 441.2,-545.25 465.54,-527.05"/>
<polygon fill="#1f93c5" stroke="#1f93c5" points="421.51,-939.48 423.95,-950.17 424.53,-943.46 427.54,-947.45 427.54,-947.45 427.54,-947.45 424.53,-943.46 431.13,-944.74 421.51,-939.48 421.51,-939.48"/>
<polygon fill="#1f93c5" stroke="#1f93c5" points="465.77,-526.89 476.51,-524.69 469.82,-523.96 473.88,-521.04 473.88,-521.04 473.88,-521.04 469.82,-523.96 471.24,-517.39 465.77,-526.89 465.77,-526.89"/>
</g>
<!-- Office -->
<g id="node10" class="node">
<title>Office</title>
<path fill="none" stroke="black" d="M783,-406.5C783,-406.5 1019,-406.5 1019,-406.5 1025,-406.5 1031,-412.5 1031,-418.5 1031,-418.5 1031,-500.5 1031,-500.5 1031,-506.5 1025,-512.5 1019,-512.5 1019,-512.5 783,-512.5 783,-512.5 777,-512.5 771,-506.5 771,-500.5 771,-500.5 771,-418.5 771,-418.5 771,-412.5 777,-406.5 783,-406.5"/>
<text text-anchor="middle" x="901" y="-497.3" font-family="Times,serif" font-size="14.00">Office</text>
<polyline fill="none" stroke="black" points="771,-489.5 1031,-489.5 "/>
<text text-anchor="start" x="779" y="-474.3" font-family="Times,serif" font-size="14.00">id :bigint</text>
<text text-anchor="start" x="779" y="-459.3" font-family="Times,serif" font-size="14.00">room :character varying(10)</text>
<text text-anchor="start" x="779" y="-444.3" font-family="Times,serif" font-size="14.00">specialty_id :bigint</text>
<text text-anchor="start" x="779" y="-429.3" font-family="Times,serif" font-size="14.00">created_at :timestamp(6) without time zone</text>
<text text-anchor="start" x="779" y="-414.3" font-family="Times,serif" font-size="14.00">updated_at :timestamp(6) without time zone</text>
</g>
<!-- Office&#45;&gt;Schedule -->
<g id="edge12" class="edge">
<title>Office&#45;&gt;Schedule</title>
<path fill="none" stroke="#48f44b" d="M863.16,-397.65C850.85,-377.86 836.85,-355.36 823.29,-333.54"/>
<polygon fill="#48f44b" stroke="#48f44b" points="863.3,-397.89 864.76,-408.76 865.95,-402.14 868.59,-406.38 868.59,-406.38 868.59,-406.38 865.95,-402.14 872.41,-404 863.3,-397.89 863.3,-397.89"/>
<polygon fill="#48f44b" stroke="#48f44b" points="823.19,-333.39 821.73,-322.52 820.55,-329.14 817.91,-324.9 817.91,-324.9 817.91,-324.9 820.55,-329.14 814.09,-327.27 823.19,-333.39 823.19,-333.39"/>
</g>
<!-- Office&#45;&gt;Specialty -->
<g id="edge11" class="edge">
<title>Office&#45;&gt;Specialty</title>
<path fill="none" stroke="#d145e5" d="M921.05,-396.36C939.15,-327.34 955.45,-216.04 901,-143 881.12,-116.33 811.13,-94.77 744.1,-79.61"/>
<polygon fill="#d145e5" stroke="#d145e5" points="920.99,-396.58 914.03,-405.05 919.68,-401.4 918.37,-406.23 918.37,-406.23 918.37,-406.23 919.68,-401.4 922.71,-407.41 920.99,-396.58 920.99,-396.58"/>
<polygon fill="#d145e5" stroke="#d145e5" points="744,-79.59 735.21,-73.03 739.11,-78.51 734.23,-77.42 734.23,-77.42 734.23,-77.42 739.11,-78.51 733.26,-81.82 744,-79.59 744,-79.59"/>
</g>
<!-- Patient&#45;&gt;Reservation -->
<g id="edge13" class="edge">
<title>Patient&#45;&gt;Reservation</title>
<path fill="none" stroke="#10b12d" d="M697.88,-585.81C688.94,-573.88 680.13,-562.13 671.72,-550.89"/>
<polygon fill="#10b12d" stroke="#10b12d" points="698.07,-586.07 700.47,-596.77 701.07,-590.07 704.07,-594.08 704.07,-594.08 704.07,-594.08 701.07,-590.07 707.67,-591.38 698.07,-586.07 698.07,-586.07"/>
<polygon fill="#10b12d" stroke="#10b12d" points="671.66,-550.81 669.26,-540.11 668.66,-546.81 665.66,-542.81 665.66,-542.81 665.66,-542.81 668.66,-546.81 662.06,-545.51 671.66,-550.81 671.66,-550.81"/>
</g>
<!-- ReservationFee -->
<g id="node13" class="node">
<title>ReservationFee</title>
<path fill="none" stroke="black" d="M328,-173.5C328,-173.5 564,-173.5 564,-173.5 570,-173.5 576,-179.5 576,-185.5 576,-185.5 576,-282.5 576,-282.5 576,-288.5 570,-294.5 564,-294.5 564,-294.5 328,-294.5 328,-294.5 322,-294.5 316,-288.5 316,-282.5 316,-282.5 316,-185.5 316,-185.5 316,-179.5 322,-173.5 328,-173.5"/>
<text text-anchor="middle" x="446" y="-279.3" font-family="Times,serif" font-size="14.00">ReservationFee</text>
<polyline fill="none" stroke="black" points="316,-271.5 576,-271.5 "/>
<text text-anchor="start" x="324" y="-256.3" font-family="Times,serif" font-size="14.00">id :bigint</text>
<text text-anchor="start" x="324" y="-241.3" font-family="Times,serif" font-size="14.00">name :character varying(50)</text>
<text text-anchor="start" x="324" y="-226.3" font-family="Times,serif" font-size="14.00">cost :double precision</text>
<text text-anchor="start" x="324" y="-211.3" font-family="Times,serif" font-size="14.00">description :text</text>
<text text-anchor="start" x="324" y="-196.3" font-family="Times,serif" font-size="14.00">created_at :timestamp(6) without time zone</text>
<text text-anchor="start" x="324" y="-181.3" font-family="Times,serif" font-size="14.00">updated_at :timestamp(6) without time zone</text>
</g>
<!-- Reservation&#45;&gt;ReservationFee -->
<g id="edge15" class="edge">
<title>Reservation&#45;&gt;ReservationFee</title>
<path fill="none" stroke="#770ad1" d="M539.97,-367.93C524.66,-346.26 508.56,-323.49 494.1,-303.04"/>
<polygon fill="#770ad1" stroke="#770ad1" points="540.07,-368.06 542.17,-378.83 542.95,-372.15 545.84,-376.23 545.84,-376.23 545.84,-376.23 542.95,-372.15 549.51,-373.63 540.07,-368.06 540.07,-368.06"/>
<polygon fill="#770ad1" stroke="#770ad1" points="494,-302.89 491.9,-292.13 491.11,-298.81 488.22,-294.73 488.22,-294.73 488.22,-294.73 491.11,-298.81 484.55,-297.32 494,-302.89 494,-302.89"/>
</g>
<!-- Reservation&#45;&gt;Schedule -->
<g id="edge14" class="edge">
<title>Reservation&#45;&gt;Schedule</title>
<path fill="none" stroke="#3f4a39" d="M668.06,-367.89C676.17,-356.4 684.51,-344.61 692.71,-333.02"/>
<polygon fill="#3f4a39" stroke="#3f4a39" points="667.93,-368.06 658.49,-373.63 665.05,-372.15 662.16,-376.23 662.16,-376.23 662.16,-376.23 665.05,-372.15 665.83,-378.83 667.93,-368.06 667.93,-368.06"/>
<polygon fill="#3f4a39" stroke="#3f4a39" points="692.87,-332.79 702.32,-327.22 695.76,-328.7 698.64,-324.62 698.64,-324.62 698.64,-324.62 695.76,-328.7 694.97,-322.02 692.87,-332.79 692.87,-332.79"/>
</g>
<!-- Reservation&#45;&gt;Specialty -->
<g id="edge16" class="edge">
<title>Reservation&#45;&gt;Specialty</title>
<path fill="none" stroke="#aed03c" d="M604,-366.13C604,-289.78 604,-183.46 604,-116.84"/>
<polygon fill="#aed03c" stroke="#aed03c" points="604,-366.26 599.5,-376.26 604,-371.26 604,-376.26 604,-376.26 604,-376.26 604,-371.26 608.5,-376.26 604,-366.26 604,-366.26"/>
<polygon fill="#aed03c" stroke="#aed03c" points="604,-116.5 608.5,-106.5 604,-111.5 604,-106.5 604,-106.5 604,-106.5 604,-111.5 599.5,-106.5 604,-116.5 604,-116.5"/>
</g>
<!-- Schedule&#45;&gt;Specialty -->
<g id="edge17" class="edge">
<title>Schedule&#45;&gt;Specialty</title>
<path fill="none" stroke="#5c285b" d="M676.02,-135.86C669.69,-128.71 663.42,-121.63 657.38,-114.81"/>
<polygon fill="#5c285b" stroke="#5c285b" points="676.14,-136 679.4,-146.47 679.45,-139.74 682.77,-143.49 682.77,-143.49 682.77,-143.49 679.45,-139.74 686.14,-140.51 676.14,-136 676.14,-136"/>
<polygon fill="#5c285b" stroke="#5c285b" points="657.03,-114.41 653.77,-103.93 653.71,-110.66 650.4,-106.92 650.4,-106.92 650.4,-106.92 653.71,-110.66 647.03,-109.9 657.03,-114.41 657.03,-114.41"/>
</g>
</g>
</svg>
