<?xml version="1.0" encoding="UTF-8" standalone="no"?>
<!DOCTYPE svg PUBLIC "-//W3C//DTD SVG 1.1//EN"
 "http://www.w3.org/Graphics/SVG/1.1/DTD/svg11.dtd">
<!-- Generated by graphviz version 3.0.0 (20220226.1711)
 -->
<!-- Title: models_diagram Pages: 1 -->
<svg width="608pt" height="446pt"
 viewBox="0.00 0.00 608.19 446.00" xmlns="http://www.w3.org/2000/svg" xmlns:xlink="http://www.w3.org/1999/xlink">
<g id="graph0" class="graph" transform="scale(1 1) rotate(0) translate(4 442)">
<title>models_diagram</title>
<polygon fill="transparent" stroke="transparent" points="-4,4 -4,-442 604.19,-442 604.19,4 -4,4"/>
<!-- _diagram_info -->
<g id="node1" class="node">
<title>_diagram_info</title>
<text text-anchor="start" x="9.59" y="-423.6" font-family="Times,serif" font-size="13.00">Models diagram</text>
<text text-anchor="start" x="9.59" y="-409.6" font-family="Times,serif" font-size="13.00">Date: Apr 17 2022 &#45; 23:41</text>
<text text-anchor="start" x="9.59" y="-395.6" font-family="Times,serif" font-size="13.00">Migration version: 20220416210748</text>
<text text-anchor="start" x="9.59" y="-381.6" font-family="Times,serif" font-size="13.00">Generated by RailRoady 1.6.0</text>
<text text-anchor="start" x="9.59" y="-367.6" font-family="Times,serif" font-size="13.00">http://railroady.prestonlee.com</text>
</g>
<!-- ApplicationRecord -->
<g id="node2" class="node">
<title>ApplicationRecord</title>
<ellipse fill="none" stroke="black" cx="310.59" cy="-399" rx="77.19" ry="18"/>
<text text-anchor="middle" x="310.59" y="-395.3" font-family="Times,serif" font-size="14.00">ApplicationRecord</text>
</g>
<!-- Client -->
<g id="node3" class="node">
<title>Client</title>
<ellipse fill="none" stroke="black" cx="338.59" cy="-234" rx="32.49" ry="18"/>
<text text-anchor="middle" x="338.59" y="-230.3" font-family="Times,serif" font-size="14.00">Client</text>
</g>
<!-- Contraceptive -->
<g id="node4" class="node">
<title>Contraceptive</title>
<ellipse fill="none" stroke="black" cx="465.59" cy="-399" rx="59.59" ry="18"/>
<text text-anchor="middle" x="465.59" y="-395.3" font-family="Times,serif" font-size="14.00">Contraceptive</text>
</g>
<!-- ContraceptiveType -->
<g id="node5" class="node">
<title>ContraceptiveType</title>
<ellipse fill="none" stroke="black" cx="518.59" cy="-306" rx="77.19" ry="18"/>
<text text-anchor="middle" x="518.59" y="-302.3" font-family="Times,serif" font-size="14.00">ContraceptiveType</text>
</g>
<!-- Contraceptive&#45;&gt;ContraceptiveType -->
<g id="edge1" class="edge">
<title>Contraceptive&#45;&gt;ContraceptiveType</title>
<path fill="none" stroke="#95af05" d="M480.82,-371.86C487.95,-359.61 496.43,-345.06 503.54,-332.85"/>
<polygon fill="#95af05" stroke="#95af05" points="480.6,-372.24 471.67,-378.62 478.08,-376.56 475.56,-380.88 475.56,-380.88 475.56,-380.88 478.08,-376.56 479.45,-383.15 480.6,-372.24 480.6,-372.24"/>
<polygon fill="#95af05" stroke="#95af05" points="503.64,-332.68 512.56,-326.3 506.15,-328.36 508.67,-324.04 508.67,-324.04 508.67,-324.04 506.15,-328.36 504.78,-321.77 503.64,-332.68 503.64,-332.68"/>
</g>
<!-- Patient -->
<g id="node11" class="node">
<title>Patient</title>
<ellipse fill="none" stroke="black" cx="424.59" cy="-234" rx="35.19" ry="18"/>
<text text-anchor="middle" x="424.59" y="-230.3" font-family="Times,serif" font-size="14.00">Patient</text>
</g>
<!-- Contraceptive&#45;&gt;Patient -->
<g id="edge2" class="edge">
<title>Contraceptive&#45;&gt;Patient</title>
<path fill="none" stroke="#ad1019" d="M451.47,-372.01C444.6,-358.16 436.91,-340.59 432.59,-324 427.3,-303.64 425.37,-279.87 424.72,-262.02"/>
<polygon fill="#ad1019" stroke="#ad1019" points="451.48,-372.05 452.03,-383 453.76,-376.5 456.04,-380.95 456.04,-380.95 456.04,-380.95 453.76,-376.5 460.05,-378.9 451.48,-372.05 451.48,-372.05"/>
<polygon fill="#ad1019" stroke="#ad1019" points="424.72,-262.01 428.97,-251.9 424.6,-257.01 424.47,-252.01 424.47,-252.01 424.47,-252.01 424.6,-257.01 419.97,-252.13 424.72,-262.01 424.72,-262.01"/>
</g>
<!-- ContraceptiveType&#45;&gt;Patient -->
<g id="edge3" class="edge">
<title>ContraceptiveType&#45;&gt;Patient</title>
<path fill="none" stroke="#d12db0" d="M488.08,-282.28C476.49,-273.65 463.37,-263.87 452.07,-255.46"/>
<polygon fill="#d12db0" stroke="#d12db0" points="488.3,-282.44 493.63,-292.02 492.31,-285.42 496.32,-288.41 496.32,-288.41 496.32,-288.41 492.31,-285.42 499.01,-284.8 488.3,-282.44 488.3,-282.44"/>
<polygon fill="#d12db0" stroke="#d12db0" points="451.87,-255.31 446.54,-245.73 447.86,-252.32 443.85,-249.34 443.85,-249.34 443.85,-249.34 447.86,-252.32 441.16,-252.95 451.87,-255.31 451.87,-255.31"/>
</g>
<!-- Doctor -->
<g id="node6" class="node">
<title>Doctor</title>
<ellipse fill="none" stroke="black" cx="163.59" cy="-162" rx="35.19" ry="18"/>
<text text-anchor="middle" x="163.59" y="-158.3" font-family="Times,serif" font-size="14.00">Doctor</text>
</g>
<!-- DoctorSpecialty -->
<g id="node7" class="node">
<title>DoctorSpecialty</title>
<ellipse fill="none" stroke="black" cx="67.59" cy="-90" rx="67.69" ry="18"/>
<text text-anchor="middle" x="67.59" y="-86.3" font-family="Times,serif" font-size="14.00">DoctorSpecialty</text>
</g>
<!-- Doctor&#45;&gt;DoctorSpecialty -->
<g id="edge4" class="edge">
<title>Doctor&#45;&gt;DoctorSpecialty</title>
<path fill="none" stroke="#0940b7" d="M135.93,-140.83C124,-132.13 110,-121.92 97.8,-113.02"/>
<polygon fill="#0940b7" stroke="#0940b7" points="136.09,-140.94 141.52,-150.47 140.13,-143.89 144.17,-146.83 144.17,-146.83 144.17,-146.83 140.13,-143.89 146.82,-143.2 136.09,-140.94 136.09,-140.94"/>
<polygon fill="#0940b7" stroke="#0940b7" points="97.76,-113 92.33,-103.47 93.72,-110.05 89.68,-107.1 89.68,-107.1 89.68,-107.1 93.72,-110.05 87.03,-110.74 97.76,-113 97.76,-113"/>
</g>
<!-- Schedule -->
<g id="node14" class="node">
<title>Schedule</title>
<ellipse fill="none" stroke="black" cx="422.59" cy="-90" rx="42.79" ry="18"/>
<text text-anchor="middle" x="422.59" y="-86.3" font-family="Times,serif" font-size="14.00">Schedule</text>
</g>
<!-- Doctor&#45;&gt;Schedule -->
<g id="edge5" class="edge">
<title>Doctor&#45;&gt;Schedule</title>
<path fill="none" stroke="#599f27" d="M203.7,-150.16C250.85,-137.42 328.88,-116.33 377.92,-103.07"/>
<polygon fill="#599f27" stroke="#599f27" points="203.47,-150.22 192.64,-148.49 198.64,-151.53 193.81,-152.83 193.81,-152.83 193.81,-152.83 198.64,-151.53 194.99,-157.18 203.47,-150.22 203.47,-150.22"/>
<polygon fill="#599f27" stroke="#599f27" points="377.97,-103.06 388.8,-104.79 382.8,-101.75 387.63,-100.45 387.63,-100.45 387.63,-100.45 382.8,-101.75 386.45,-96.11 377.97,-103.06 377.97,-103.06"/>
</g>
<!-- Specialty -->
<g id="node15" class="node">
<title>Specialty</title>
<ellipse fill="none" stroke="black" cx="351.59" cy="-18" rx="43.59" ry="18"/>
<text text-anchor="middle" x="351.59" y="-14.3" font-family="Times,serif" font-size="14.00">Specialty</text>
</g>
<!-- Doctor&#45;&gt;Specialty -->
<g id="edge6" class="edge">
<title>Doctor&#45;&gt;Specialty</title>
<path fill="none" stroke="#dc9266" d="M162.55,-133.88C163.26,-114.37 167.43,-88.66 182.59,-72 211.93,-39.79 260.55,-27 298.14,-22"/>
<polygon fill="#dc9266" stroke="#dc9266" points="162.55,-133.99 157.96,-143.95 162.5,-138.99 162.46,-143.99 162.46,-143.99 162.46,-143.99 162.5,-138.99 166.96,-144.03 162.55,-133.99 162.55,-133.99"/>
<polygon fill="#dc9266" stroke="#dc9266" points="298.49,-21.96 308.95,-25.25 303.45,-21.37 308.42,-20.78 308.42,-20.78 308.42,-20.78 303.45,-21.37 307.89,-16.31 298.49,-21.96 298.49,-21.96"/>
</g>
<!-- DoctorSpecialty&#45;&gt;Specialty -->
<g id="edge7" class="edge">
<title>DoctorSpecialty&#45;&gt;Specialty</title>
<path fill="none" stroke="#1eb681" d="M125.37,-74.76C178.57,-61.65 256.46,-42.45 305.57,-30.35"/>
<polygon fill="#1eb681" stroke="#1eb681" points="125.16,-74.81 114.37,-72.84 120.3,-76.01 115.45,-77.2 115.45,-77.2 115.45,-77.2 120.3,-76.01 116.53,-81.57 125.16,-74.81 125.16,-74.81"/>
<polygon fill="#1eb681" stroke="#1eb681" points="305.58,-30.34 316.36,-32.32 310.43,-29.15 315.29,-27.95 315.29,-27.95 315.29,-27.95 310.43,-29.15 314.21,-23.58 305.58,-30.34 305.58,-30.34"/>
</g>
<!-- Drug -->
<g id="node8" class="node">
<title>Drug</title>
<ellipse fill="none" stroke="black" cx="571.59" cy="-399" rx="28.7" ry="18"/>
<text text-anchor="middle" x="571.59" y="-395.3" font-family="Times,serif" font-size="14.00">Drug</text>
</g>
<!-- Invoice -->
<g id="node9" class="node">
<title>Invoice</title>
<ellipse fill="none" stroke="black" cx="338.59" cy="-306" rx="37.09" ry="18"/>
<text text-anchor="middle" x="338.59" y="-302.3" font-family="Times,serif" font-size="14.00">Invoice</text>
</g>
<!-- Invoice&#45;&gt;Client -->
<g id="edge8" class="edge">
<title>Invoice&#45;&gt;Client</title>
<path fill="none" stroke="#a231cc" d="M338.59,-277.67C338.59,-272.69 338.59,-267.49 338.59,-262.51"/>
<polygon fill="#a231cc" stroke="#a231cc" points="338.59,-277.7 334.09,-287.7 338.59,-282.7 338.59,-287.7 338.59,-287.7 338.59,-287.7 338.59,-282.7 343.09,-287.7 338.59,-277.7 338.59,-277.7"/>
<polygon fill="#a231cc" stroke="#a231cc" points="338.59,-262.1 343.09,-252.1 338.59,-257.1 338.59,-252.1 338.59,-252.1 338.59,-252.1 338.59,-257.1 334.09,-252.1 338.59,-262.1 338.59,-262.1"/>
</g>
<!-- Invoice&#45;&gt;Patient -->
<g id="edge10" class="edge">
<title>Invoice&#45;&gt;Patient</title>
<path fill="none" stroke="#63dc30" d="M364.87,-283.61C375.66,-274.83 388.12,-264.69 398.86,-255.95"/>
<polygon fill="#63dc30" stroke="#63dc30" points="364.59,-283.84 353.99,-286.66 360.71,-287 356.83,-290.15 356.83,-290.15 356.83,-290.15 360.71,-287 359.67,-293.64 364.59,-283.84 364.59,-283.84"/>
<polygon fill="#63dc30" stroke="#63dc30" points="398.92,-255.9 409.52,-253.07 402.8,-252.74 406.68,-249.58 406.68,-249.58 406.68,-249.58 402.8,-252.74 403.84,-246.09 398.92,-255.9 398.92,-255.9"/>
</g>
<!-- Reservation -->
<g id="node12" class="node">
<title>Reservation</title>
<ellipse fill="none" stroke="black" cx="351.59" cy="-162" rx="52.79" ry="18"/>
<text text-anchor="middle" x="351.59" y="-158.3" font-family="Times,serif" font-size="14.00">Reservation</text>
</g>
<!-- Invoice&#45;&gt;Reservation -->
<g id="edge9" class="edge">
<title>Invoice&#45;&gt;Reservation</title>
<path fill="none" stroke="#b21f64" d="M315.34,-281.82C308.22,-273.19 301.3,-262.85 297.59,-252 292.42,-236.86 291.4,-230.75 297.59,-216 302.6,-204.08 311.74,-193.49 321.09,-184.97"/>
<polygon fill="#b21f64" stroke="#b21f64" points="315.52,-282.02 318.75,-292.5 318.82,-285.77 322.13,-289.52 322.13,-289.52 322.13,-289.52 318.82,-285.77 325.5,-286.55 315.52,-282.02 315.52,-282.02"/>
<polygon fill="#b21f64" stroke="#b21f64" points="321.3,-184.79 331.83,-181.74 325.11,-181.55 328.92,-178.31 328.92,-178.31 328.92,-178.31 325.11,-181.55 326,-174.89 321.3,-184.79 321.3,-184.79"/>
</g>
<!-- Office -->
<g id="node10" class="node">
<title>Office</title>
<ellipse fill="none" stroke="black" cx="474.59" cy="-162" rx="33.29" ry="18"/>
<text text-anchor="middle" x="474.59" y="-158.3" font-family="Times,serif" font-size="14.00">Office</text>
</g>
<!-- Office&#45;&gt;Schedule -->
<g id="edge12" class="edge">
<title>Office&#45;&gt;Schedule</title>
<path fill="none" stroke="#aca1fb" d="M456.72,-136.94C451.61,-130.06 446.04,-122.56 440.91,-115.65"/>
<polygon fill="#aca1fb" stroke="#aca1fb" points="456.83,-137.09 459.18,-147.8 459.81,-141.1 462.79,-145.12 462.79,-145.12 462.79,-145.12 459.81,-141.1 466.41,-142.43 456.83,-137.09 456.83,-137.09"/>
<polygon fill="#aca1fb" stroke="#aca1fb" points="440.67,-115.33 438.32,-104.62 437.69,-111.32 434.71,-107.31 434.71,-107.31 434.71,-107.31 437.69,-111.32 431.1,-109.99 440.67,-115.33 440.67,-115.33"/>
</g>
<!-- Office&#45;&gt;Specialty -->
<g id="edge11" class="edge">
<title>Office&#45;&gt;Specialty</title>
<path fill="none" stroke="#0e8bfa" d="M481.85,-134.24C485.35,-115.32 486.56,-90.19 474.59,-72 458.5,-47.54 428.48,-34.32 402.13,-27.2"/>
<polygon fill="#0e8bfa" stroke="#0e8bfa" points="481.85,-134.25 475.34,-143.07 480.79,-139.14 479.74,-144.02 479.74,-144.02 479.74,-144.02 480.79,-139.14 484.14,-144.97 481.85,-134.25 481.85,-134.25"/>
<polygon fill="#0e8bfa" stroke="#0e8bfa" points="401.96,-27.16 393.33,-20.39 397.1,-25.96 392.25,-24.76 392.25,-24.76 392.25,-24.76 397.1,-25.96 391.17,-29.13 401.96,-27.16 401.96,-27.16"/>
</g>
<!-- Patient&#45;&gt;Reservation -->
<g id="edge13" class="edge">
<title>Patient&#45;&gt;Reservation</title>
<path fill="none" stroke="#3d77ed" d="M401.34,-210.7C393.15,-202.85 383.93,-194.01 375.67,-186.09"/>
<polygon fill="#3d77ed" stroke="#3d77ed" points="401.54,-210.89 405.64,-221.06 405.15,-214.35 408.75,-217.81 408.75,-217.81 408.75,-217.81 405.15,-214.35 411.87,-214.56 401.54,-210.89 401.54,-210.89"/>
<polygon fill="#3d77ed" stroke="#3d77ed" points="375.64,-186.05 371.53,-175.89 372.03,-182.59 368.42,-179.13 368.42,-179.13 368.42,-179.13 372.03,-182.59 365.3,-182.38 375.64,-186.05 375.64,-186.05"/>
</g>
<!-- ReservationFee -->
<g id="node13" class="node">
<title>ReservationFee</title>
<ellipse fill="none" stroke="black" cx="257.59" cy="-90" rx="65.79" ry="18"/>
<text text-anchor="middle" x="257.59" y="-86.3" font-family="Times,serif" font-size="14.00">ReservationFee</text>
</g>
<!-- Reservation&#45;&gt;ReservationFee -->
<g id="edge15" class="edge">
<title>Reservation&#45;&gt;ReservationFee</title>
<path fill="none" stroke="#a2ae3d" d="M322.44,-139.29C311.36,-131.04 298.73,-121.63 287.57,-113.32"/>
<polygon fill="#a2ae3d" stroke="#a2ae3d" points="322.71,-139.49 328.04,-149.07 326.72,-142.48 330.73,-145.46 330.73,-145.46 330.73,-145.46 326.72,-142.48 333.42,-141.86 322.71,-139.49 322.71,-139.49"/>
<polygon fill="#a2ae3d" stroke="#a2ae3d" points="287.4,-113.19 282.06,-103.61 283.39,-110.21 279.38,-107.22 279.38,-107.22 279.38,-107.22 283.39,-110.21 276.69,-110.83 287.4,-113.19 287.4,-113.19"/>
</g>
<!-- Reservation&#45;&gt;Schedule -->
<g id="edge14" class="edge">
<title>Reservation&#45;&gt;Schedule</title>
<path fill="none" stroke="#0e10a8" d="M375.45,-137.48C383.04,-130 391.42,-121.74 398.98,-114.28"/>
<polygon fill="#0e10a8" stroke="#0e10a8" points="375.18,-137.74 364.9,-141.56 371.62,-141.25 368.06,-144.76 368.06,-144.76 368.06,-144.76 371.62,-141.25 371.22,-147.97 375.18,-137.74 375.18,-137.74"/>
<polygon fill="#0e10a8" stroke="#0e10a8" points="399.09,-114.17 409.38,-110.35 402.66,-110.66 406.22,-107.15 406.22,-107.15 406.22,-107.15 402.66,-110.66 403.06,-103.94 399.09,-114.17 399.09,-114.17"/>
</g>
<!-- Reservation&#45;&gt;Specialty -->
<g id="edge16" class="edge">
<title>Reservation&#45;&gt;Specialty</title>
<path fill="none" stroke="#8e520e" d="M351.59,-133.68C351.59,-108.6 351.59,-71.63 351.59,-46.49"/>
<polygon fill="#8e520e" stroke="#8e520e" points="351.59,-133.87 347.09,-143.87 351.59,-138.87 351.59,-143.87 351.59,-143.87 351.59,-143.87 351.59,-138.87 356.09,-143.87 351.59,-133.87 351.59,-133.87"/>
<polygon fill="#8e520e" stroke="#8e520e" points="351.59,-46.19 356.09,-36.19 351.59,-41.19 351.59,-36.19 351.59,-36.19 351.59,-36.19 351.59,-41.19 347.09,-36.19 351.59,-46.19 351.59,-46.19"/>
</g>
<!-- Schedule&#45;&gt;Specialty -->
<g id="edge17" class="edge">
<title>Schedule&#45;&gt;Specialty</title>
<path fill="none" stroke="#5de461" d="M399.28,-66.01C391.51,-58.35 382.85,-49.82 375.07,-42.14"/>
<polygon fill="#5de461" stroke="#5de461" points="399.36,-66.1 403.32,-76.32 402.92,-69.61 406.48,-73.12 406.48,-73.12 406.48,-73.12 402.92,-69.61 409.64,-69.91 399.36,-66.1 399.36,-66.1"/>
<polygon fill="#5de461" stroke="#5de461" points="374.76,-41.84 370.8,-31.62 371.2,-38.33 367.64,-34.82 367.64,-34.82 367.64,-34.82 371.2,-38.33 364.48,-38.03 374.76,-41.84 374.76,-41.84"/>
</g>
</g>
</svg>
